<svg width="225" height="225" version="1.1" viewBox="0 0 225 225" xmlns="http://www.w3.org/2000/svg">
 <path d="m63 27 11-11m-30 3.3v-15m-18 23-11-11m3.4 29h-16m23 19-11 11m55 63c-13 7.9-9.2 26 4.8 34 10 5.9 38 20 68 49l78-45c-9-20-4.4-36-14-52-15-27-17-31-26-45-2.3-3.3-4.7-12-13-9.7-13 3.9-7.8 17-7.8 17s-9.7-21-23-17c-13 3.6-8.6 22-8.6 22s-8.4-20-23-13c-13 6.8-6.5 20-6.5 20l-43-60s-7.9-8.5-16-3.2c-7 4.7-8.3 13-5.3 18 1.9 3.5 53 87 53 87" fill="none" stroke="#000" stroke-linecap="round" stroke-linejoin="round" stroke-width="8"/>
</svg>
