<svg viewBox="0 0 469 469" xmlns="http://www.w3.org/2000/svg">
 <path d="m234 0c-72 0-131 60-131 133 0 29 17 55 32 79 8.8 14 17 27 19 36 5.3 27 8.3 92 8.3 92 0.21 4.5 3.9 8.1 8.4 8.1h127c2.3 0 4.6-0.95 6.1-2.6 1.6-1.7 2.4-4 2.3-6.3-1.6-28-0.48-78 9.1-93 1.7-2.5 3.6-5.2 5.6-8.2 17-24 45-64 45-106-0.012-73-59-133-131-133zm73 229c-2.1 3-4.1 5.8-5.8 8.4-13 20-13 72-12 94h-110c-0.99-19-3.8-64-8.2-87-2.5-13-11-26-21-42-14-21-29-45-29-69 0-64 51-116 114-116 63 0 114 52 114 116 5e-3 37-26 74-41 96zm-138 132h131v66c0 12-8 23-19 26-2.1 9-10 16-20 16h-54c-9.6 0-18-6.7-20-16-11-3.8-19-14-19-26v-66h6e-3zm47-320c0.92 3.2-0.93 6.6-4.2 7.5-59 17-60 81-60 83 0 3.3-2.7 6.1-6 6.1h-0.012c-3.3 0-6-2.7-6.1-6 0-0.75 0.47-76 69-95 3.2-0.92 6.6 0.93 7.5 4.2zm103 122c-1.2 1.3-2.8 2-4.5 2-1.4 0-2.9-0.52-4.1-1.6-2.5-2.2-2.7-6.1-0.44-8.6 19-21 3.2-47 3-48-1.8-2.8-0.94-6.6 1.9-8.3 2.8-1.8 6.6-0.93 8.3 1.9 7.4 12 16 40-4.3 62z" fill="white"/>
</svg>
