<svg viewBox="0 0 512 512" xmlns="http://www.w3.org/2000/svg">
 <path d="m497 482c-13 0-16-6.6-28-15l25-55c4.5-9.9-2.7-21-14-21h-210v-262c55 67 60 160 16 232 202 0.47 195-1.1 205 1.4 28-135-74-271-221-271v-5.2l79-27c14-4.6 14-24 0-28l-89-30c-9.7-3.3-20 4-20 14v85l-190 237c-7.8 9.8-0.86 24 12 24 188-0.065 176 0.14 178-0.15v30h-210c-11 0-18 11-14 21l25 55c-11 8.2-15 15-28 15-8.3 0-15 6.7-15 15s6.7 15 15 15c21 0 32-9.4 40-16 15-13 26-13 41 0 8.1 6.9 19 16 40 16s32-9.4 40-16c15-13 26-13 41 0 8.1 6.9 19 16 40 16s32-9.4 40-16c6.8-5.7 11-9.2 20-9.2s14 3.5 20 9.2c8.1 6.9 19 16 40 16 21 0 32-9.4 40-16 6.8-5.7 11-9.2 20-9.2 9.6 0 14 3.5 20 9.2 8.1 6.9 19 16 40 16 8.3 0 15-6.7 15-15s-6.7-15-15-15z" fill="white"/>
</svg>
