<svg width="1200" height="800" version="1.1" viewBox="-188 -109 1626 651" xmlns="http://www.w3.org/2000/svg">
 <defs>
  <style>.cls-1{fill:#fff}</style>
 </defs>
 <rect x="-188" y="-325" width="1627" height="1086" ry="15" opacity=".99" stop-color="#000000"/>
 <path class="cls-1" d="m169 377c59 0 105-46 105-113v-263h64v427h-63v-40c-29 30-68 47-113 47-91 0-162-66-162-167v-267h64v263c0 69 45 113 105 113"/>
 <path class="cls-1" d="m385 0.01h62v155a154 154 0 0 1 110-46c91 0 163 73 163 163 0 90-72 162-163 162a155 155 0 0 1-111-46v39h-61zm168 380c59 0 107-48 107-108 0-60-48-108-107-108-59 0-107 48-107 108 0 60 48 108 107 108"/>
 <path class="cls-1" d="m905 110c90 0 155 69 155 162v20h-253c8.5 51 51 88 103 88 36 0 66-15 90-46l45 33c-31 41-77 66-134 66-93 0-165-70-165-162 0-88 69-162 160-162m-96 133h190c-10-48-49-79-94-79s-84 32-95 79"/>
 <path class="cls-1" d="m1225 171c-40 0-70 31-70 79v177h-62v-311h61v38c15-25 40-41 74-41h21v57z"/>
</svg>
